# xmcd
#
# Track frame offsets: 
#        150
#        20480
#        40972
#        60139
#        75345
#        103080
#        121207
#        146115
#        164570
#        186105
#        207610
#        239742
#
# Disc length: 3448 seconds
#
# Revision: 1
# Processed by: cddbd v1.5.2PL0 Copyright (c) Steve Scherf et al.
# Submitted via: ExactAudioCopy v0.95b3
#
DISCID=a70d760c
DTITLE=The Kinsey Report - Smoke And Steel
DYEAR=1998
DGENRE=Blues
TTITLE0=Time Is Running Out
TTITLE1=Dead In Your Tracks
TTITLE2=This Old City
TTITLE3=Can't See The Hook
TTITLE4=Loved Ones
TTITLE5=Must Be Love
TTITLE6=When The Church Burned Down
TTITLE7=Rattlesnake Highway
TTITLE8=Down In The Dungeon
TTITLE9=Fire Down Below
TTITLE10=Code Of The Streets
TTITLE11=One Step Back
EXTD=
EXTT0=
EXTT1=
EXTT2=
EXTT3=
EXTT4=
EXTT5=
EXTT6=
EXTT7=
EXTT8=
EXTT9=
EXTT10=
EXTT11=
PLAYORDER=
